# Blender v2.79 (sub 0) OBJ File: 'station.blend'
# www.blender.org
mtllib station.mtl
o station_Cube.004
v -5.979452 6.109382 1.975976
v -5.979452 0.109383 1.975975
v 6.020548 6.109381 1.975974
v 6.020548 0.109383 1.975973
v -5.979452 6.109383 -1.024024
v -5.979452 0.109384 -1.024025
v 6.020548 6.109382 -1.024026
v 6.020548 0.109384 -1.024027
v -3.494025 6.109381 1.975975
v -3.494025 0.109383 1.975974
v -3.494025 6.109382 -1.024025
v -3.494025 0.109384 -1.024026
v -0.455485 0.109383 1.975974
v -0.455485 6.109382 -1.024026
v -0.455485 6.109381 1.975975
v -0.455485 0.109384 -1.024026
v 2.583666 0.109383 1.975974
v 2.583666 6.109382 -1.024026
v 2.583666 6.109381 1.975974
v 2.583666 0.109384 -1.024026
v 3.520877 0.109383 1.975974
v 3.520877 6.109382 -1.024026
v 3.520877 6.109381 1.975974
v 3.520877 0.109384 -1.024026
v 0.522736 6.109381 1.975975
v 0.522736 0.109384 -1.024026
v 0.522736 0.109383 1.975974
v 0.522736 6.109382 -1.024026
v -2.463878 6.109381 1.975975
v -2.463878 0.109384 -1.024026
v -2.463878 0.109383 1.975974
v -2.463878 6.109382 -1.024025
v -5.503910 6.109381 1.975976
v -5.503910 0.109384 -1.024025
v -5.503910 0.109383 1.975975
v -5.503910 6.109383 -1.024024
v 5.518092 0.109383 1.975973
v 5.518091 6.109382 -1.024026
v 5.518091 6.109381 1.975974
v 5.518091 0.109384 -1.024027
v 6.020548 6.109382 1.512252
v 6.020548 0.109383 1.512251
v -5.979452 6.109381 1.512253
v -5.979452 0.109383 1.512252
v -3.494025 0.109383 1.512252
v -3.494025 6.109381 1.512252
v -0.455485 6.109381 1.512252
v -0.455485 0.109383 1.512251
v 2.583666 0.109383 1.512251
v 2.583666 6.109381 1.512252
v 3.520877 6.109382 1.512252
v 3.520877 0.109383 1.512251
v 0.522736 0.109383 1.512251
v 0.522736 6.109382 1.512252
v -2.463878 6.109382 1.512252
v -2.463878 0.109383 1.512252
v -5.503910 0.109383 1.512252
v -5.503910 6.109382 1.512253
v 5.518092 0.109383 1.512250
v 5.518091 6.109381 1.512251
v 6.020548 0.109384 -0.570289
v -5.979452 6.109382 -0.570287
v -3.494025 0.109384 -0.570288
v -0.455485 0.109384 -0.570288
v 2.583666 0.109384 -0.570289
v 3.520877 0.109384 -0.570289
v 0.522736 0.109384 -0.570288
v -2.463878 0.109384 -0.570288
v -5.503910 0.109384 -0.570288
v 5.518091 0.109384 -0.570289
v 6.020548 6.109382 -0.570288
v -5.979452 0.109384 -0.570288
v -3.494026 6.109382 -0.570287
v -0.455485 6.109382 -0.570288
v 2.583666 6.109382 -0.570288
v 3.520877 6.109382 -0.570288
v 0.522736 6.109382 -0.570288
v -2.463878 6.109382 -0.570287
v -5.503910 6.109382 -0.570287
v 5.518091 6.109382 -0.570288
v -5.503910 6.209381 1.975976
v -5.979452 6.209381 1.975976
v 6.020548 6.209381 1.512252
v 6.020548 6.209381 1.975974
v 5.518091 6.209382 -1.024026
v 6.020548 6.209382 -1.024026
v -5.979452 6.209382 -0.570287
v -5.979452 6.209382 -1.024024
v -2.463878 6.209381 1.975975
v -3.494025 6.209381 1.975975
v -5.503910 6.209382 -1.024024
v -3.494025 6.209382 -1.024025
v -3.494025 6.209381 1.512252
v -2.463878 6.209382 -1.024025
v -0.455485 6.209382 -1.024026
v 0.522736 6.209381 1.975975
v -0.455485 6.209381 1.975975
v -0.455485 6.209381 1.512252
v 0.522736 6.209382 -1.024025
v 2.583666 6.209382 -1.024026
v 3.520877 6.209381 1.975974
v 2.583667 6.209381 1.975974
v 2.583666 6.209381 1.512252
v 3.520877 6.209382 -1.024026
v 5.518091 6.209381 1.975974
v 3.520877 6.209381 1.512252
v 0.522736 6.209381 1.512252
v -2.463878 6.209381 1.512252
v -5.503910 6.209381 1.512253
v 5.518091 6.209381 1.512251
v 6.020548 6.209382 -0.570288
v -5.979452 6.209381 1.512253
v -3.494025 6.209382 -0.570287
v -0.455485 6.209382 -0.570288
v 2.583666 6.209382 -0.570288
v 3.520877 6.209382 -0.570288
v 0.522736 6.209382 -0.570288
v -2.463878 6.209382 -0.570287
v -5.503910 6.209382 -0.570287
v 5.518091 6.209382 -0.570288
v 6.033287 6.109382 -0.921927
v 6.033287 0.109384 -0.921927
v -5.966713 6.109383 -0.921925
v -5.966713 0.109384 -0.921925
v 3.547859 6.109382 -0.921927
v 3.547859 0.109384 -0.921926
v 0.509319 6.109382 -0.921926
v 0.509319 0.109384 -0.921926
v -2.529833 6.109382 -0.921926
v -2.529833 0.109384 -0.921925
v -3.467043 6.109382 -0.921926
v -3.467043 0.109384 -0.921925
v -0.468902 0.109384 -0.921926
v -0.468902 6.109382 -0.921926
v 2.517712 0.109384 -0.921926
v 2.517712 6.109382 -0.921927
v 5.557744 0.109384 -0.921927
v 5.557744 6.109383 -0.921927
v -5.464257 6.109382 -0.921925
v -5.464257 0.109384 -0.921925
v -5.956557 6.109382 -0.907200
v -5.956557 0.109384 -0.907200
v -5.956557 6.109382 1.672962
v -5.956557 0.109383 1.672963
v -5.956557 6.209382 1.512253
v -5.956557 6.209381 -0.570287
v 5.851689 6.109382 -0.981801
v 5.851689 0.109384 -0.981800
v 5.851689 0.109384 1.688403
v 5.851689 6.109383 1.688402
v 5.851689 6.209381 -0.795581
v 5.851689 6.209382 1.286959
v 6.033287 6.109382 1.651830
v 6.033287 0.109383 1.651830
v -5.966713 6.109381 1.651832
v -5.966713 0.109383 1.651833
v 3.547859 6.109382 1.651830
v 3.547858 0.109383 1.651831
v 0.509319 0.109383 1.651831
v 0.509319 6.109382 1.651831
v -2.529833 0.109383 1.651832
v -2.529832 6.109382 1.651831
v -3.467044 0.109383 1.651832
v -3.467044 6.109381 1.651832
v -0.468902 6.109381 1.651831
v -0.468902 0.109383 1.651831
v 2.517712 6.109381 1.651830
v 2.517712 0.109383 1.651831
v 5.557744 6.109381 1.651830
v 5.557744 0.109383 1.651830
v -5.464256 0.109383 1.651833
v -5.464256 6.109382 1.651832
v 5.557744 6.209381 1.651830
v 6.033287 6.209381 1.651830
v -5.966713 6.209381 1.651832
v 2.517712 6.209381 1.651830
v 3.547859 6.209381 1.651830
v -0.468902 6.209381 1.651831
v 0.509319 6.209381 1.651831
v -3.467043 6.209381 1.651832
v -2.529832 6.209381 1.651831
v -5.464256 6.209381 1.651832
v 5.919564 0.251768 -0.764855
v -5.870001 0.251768 -0.764853
v -3.494026 0.251768 -0.764854
v -0.455485 0.251767 -0.764855
v 2.583666 0.251767 -0.764855
v 3.520877 0.251768 -0.764855
v 0.522736 0.251768 -0.764855
v -2.463878 0.251768 -0.764854
v -5.503910 0.251768 -0.764853
v 5.518091 0.251767 -0.764855
v 5.919564 0.251767 1.598560
v -3.494025 0.251767 1.598561
v -0.455485 0.251767 1.598561
v 2.583666 0.251767 1.598560
v 3.520877 0.251767 1.598560
v 0.522736 0.251767 1.598561
v -2.463878 0.251767 1.598561
v -5.503910 0.251767 1.598562
v 5.518091 0.251767 1.598560
v -5.870001 0.251767 1.598561
vt 0.219944 0.033069
vt 0.048010 0.033069
vt 0.048010 0.018591
vt 0.219944 0.018591
vt 0.146979 0.367240
vt 0.146979 0.540124
vt 0.133977 0.540124
vt 0.133977 0.367240
vt 0.225675 0.350656
vt 0.397609 0.350656
vt 0.397609 0.364359
vt 0.225675 0.364359
vt 0.120689 0.537242
vt 0.120689 0.364359
vt 0.133977 0.364359
vt 0.133977 0.537242
vt 0.219944 0.263061
vt 0.219944 0.205191
vt 0.222809 0.205191
vt 0.222809 0.263061
vt 0.496864 0.032293
vt 0.483576 0.032293
vt 0.483576 0.018591
vt 0.496864 0.018591
vt 0.496864 0.119889
vt 0.483576 0.119889
vt 0.483576 0.090206
vt 0.496864 0.090206
vt 0.219944 0.090616
vt 0.222809 0.033069
vt 0.222809 0.090616
vt 0.225675 0.263061
vt 0.397609 0.263061
vt 0.397609 0.292744
vt 0.225675 0.292744
vt 0.086851 0.905090
vt 0.086851 0.234640
vt 0.291851 0.234640
vt 0.291851 0.905090
vt 0.225675 0.177005
vt 0.397609 0.177005
vt 0.397609 0.205191
vt 0.225675 0.205191
vt 0.265793 0.364359
vt 0.265793 0.421906
vt 0.262927 0.421906
vt 0.262927 0.364359
vt 0.496864 0.205945
vt 0.483576 0.205945
vt 0.483576 0.177758
vt 0.496864 0.177758
vt 0.292025 0.903981
vt 0.292025 0.236005
vt 0.485859 0.236005
vt 0.485859 0.903981
vt 0.496864 0.292333
vt 0.483576 0.292333
vt 0.483576 0.265328
vt 0.496864 0.265328
vt 0.133977 0.540124
vt 0.120689 0.540124
vt 0.225675 0.090616
vt 0.397609 0.090616
vt 0.397609 0.117621
vt 0.225675 0.117621
vt 0.495537 0.902177
vt 0.495537 0.228864
vt 0.687285 0.228864
vt 0.687285 0.902177
vt 0.225675 0.033069
vt 0.397609 0.033069
vt 0.222809 0.117621
vt 0.222809 0.090616
vt 0.496864 0.349881
vt 0.483576 0.349881
vt 0.219944 0.117621
vt 0.048010 0.117621
vt 0.048010 0.090616
vt 0.048010 0.205191
vt 0.048010 0.177005
vt 0.219944 0.177005
vt 0.048010 0.537242
vt 0.061012 0.537242
vt 0.061012 0.540124
vt 0.048010 0.540124
vt 0.219944 0.292744
vt 0.048010 0.292744
vt 0.048010 0.263061
vt 0.219944 0.364359
vt 0.048010 0.364359
vt 0.048010 0.350656
vt 0.219944 0.350656
vt 0.225675 0.364359
vt 0.225675 0.424365
vt 0.222809 0.424365
vt 0.222809 0.364359
vt 0.893138 0.270119
vt 0.893138 0.024397
vt 0.975905 0.024397
vt 0.975905 0.270119
vt 0.496864 0.364359
vt 0.483576 0.364359
vt 0.222809 0.364359
vt 0.222809 0.350656
vt 0.225675 0.018591
vt 0.397609 0.018591
vt 0.696021 0.902563
vt 0.696021 0.229225
vt 0.879054 0.229225
vt 0.879054 0.902563
vt 0.206656 0.367240
vt 0.146979 0.364359
vt 0.206656 0.364359
vt 0.556541 0.364359
vt 0.556541 0.349881
vt 0.222809 0.177005
vt 0.556541 0.090206
vt 0.556541 0.032293
vt 0.556541 0.177758
vt 0.556541 0.119889
vt 0.240003 0.424365
vt 0.240003 0.364359
vt 0.242868 0.364359
vt 0.242868 0.424365
vt 0.248600 0.364359
vt 0.248600 0.423742
vt 0.245734 0.423742
vt 0.245734 0.364359
vt 0.556541 0.265328
vt 0.556541 0.205945
vt 0.556541 0.292333
vt 0.222809 0.263061
vt 0.222809 0.205191
vt 0.254331 0.422228
vt 0.254331 0.364359
vt 0.257196 0.364359
vt 0.257196 0.422228
vt 0.222809 0.033069
vt 0.222809 0.018591
vt 0.222809 0.177005
vt 0.556541 0.018591
vt 0.222809 0.292744
vt 0.222809 0.350656
vt 0.061012 0.364359
vt 0.219944 0.367240
vt 0.219944 0.540124
vt 0.206656 0.540124
vt 0.048010 0.364359
vt 0.569543 0.032293
vt 0.569543 0.018591
vt 0.569543 0.119889
vt 0.569543 0.090206
vt 0.569543 0.205945
vt 0.569543 0.177758
vt 0.569543 0.292333
vt 0.569543 0.265328
vt 0.569543 0.349881
vt 0.569543 0.364359
vt 0.231406 0.424365
vt 0.231406 0.364359
vt 0.234272 0.364359
vt 0.234272 0.424365
vt 0.410611 0.292333
vt 0.397609 0.292333
vt 0.397609 0.265328
vt 0.410611 0.265328
vt 0.410611 0.205945
vt 0.397609 0.205945
vt 0.397609 0.177758
vt 0.410611 0.177758
vt 0.410611 0.119889
vt 0.397609 0.119889
vt 0.397609 0.090206
vt 0.410611 0.090206
vt 0.410611 0.032293
vt 0.397609 0.032293
vt 0.397609 0.018591
vt 0.410611 0.018591
vt 0.133977 0.364359
vt 0.237137 0.364359
vt 0.237137 0.424365
vt 0.234272 0.424365
vt 0.234272 0.364359
vt 0.251465 0.422271
vt 0.251465 0.364359
vt 0.254331 0.364359
vt 0.254331 0.422271
vt 0.219944 0.364359
vt 0.410611 0.349881
vt 0.397609 0.349881
vt 0.410611 0.364359
vt 0.397609 0.364359
vt 0.483576 0.364359
vt 0.470288 0.364359
vt 0.470288 0.349881
vt 0.483576 0.349881
vt 0.483576 0.090206
vt 0.470288 0.090206
vt 0.470288 0.032293
vt 0.483576 0.032293
vt 0.483576 0.177758
vt 0.470288 0.177758
vt 0.470288 0.119889
vt 0.483576 0.119889
vt 0.483576 0.265328
vt 0.470288 0.265328
vt 0.470288 0.205945
vt 0.483576 0.205945
vt 0.470288 0.292333
vt 0.483576 0.292333
vt 0.470288 0.018591
vt 0.483576 0.018591
vt 0.222809 0.364359
vt 0.222809 0.424365
vt 0.219944 0.424365
vt 0.219944 0.364359
vt 0.248600 0.422271
vt 0.248600 0.364359
vt 0.251465 0.364359
vt 0.251465 0.422271
vt 0.222809 0.364359
vt 0.257196 0.422228
vt 0.257196 0.364359
vt 0.260062 0.364359
vt 0.260062 0.422228
vt 0.228541 0.364359
vt 0.228541 0.424365
vt 0.225675 0.424365
vt 0.225675 0.364359
vt 0.222809 0.292744
vt 0.231406 0.364359
vt 0.231406 0.424365
vt 0.228541 0.424365
vt 0.228541 0.364359
vt 0.242868 0.423742
vt 0.242868 0.364359
vt 0.245734 0.364359
vt 0.245734 0.423742
vt 0.240003 0.364359
vt 0.240003 0.424365
vt 0.237137 0.424365
vt 0.237137 0.364359
vt 0.260062 0.421906
vt 0.260062 0.364359
vt 0.262927 0.364359
vt 0.262927 0.421906
vt 0.222809 0.018591
vt 0.222809 0.117621
vt 0.225675 0.350656
vt 0.397609 0.350656
vt 0.397609 0.364359
vt 0.225675 0.364359
vt 0.225675 0.263061
vt 0.397609 0.263061
vt 0.397609 0.292744
vt 0.225675 0.292744
vt 0.225675 0.177005
vt 0.397609 0.177005
vt 0.397609 0.205191
vt 0.225675 0.205191
vt 0.225675 0.090616
vt 0.397609 0.090616
vt 0.397609 0.117621
vt 0.225675 0.117621
vt 0.225675 0.033069
vt 0.397609 0.033069
vt 0.893138 0.270119
vt 0.893138 0.024397
vt 0.975905 0.024397
vt 0.975905 0.270119
vt 0.225675 0.018591
vt 0.397609 0.018591
vt 0.061012 0.537242
vt 0.120689 0.537242
vt 0.120689 0.540124
vt 0.061012 0.540124
vt 0.061012 0.364359
vt 0.120689 0.364359
vt 0.206656 0.367240
vt 0.146979 0.367240
vt 0.146979 0.364359
vt 0.206656 0.364359
vt 0.206656 0.540124
vt 0.146979 0.540124
vt 0.219944 0.033069
vt 0.048010 0.033069
vt 0.048010 0.018591
vt 0.219944 0.018591
vt 0.219944 0.263061
vt 0.219944 0.205191
vt 0.222809 0.205191
vt 0.222809 0.263061
vt 0.219944 0.090616
vt 0.222809 0.033069
vt 0.222809 0.090616
vt 0.086851 0.899252
vt 0.086851 0.228803
vt 0.291851 0.228803
vt 0.291851 0.899252
vt 0.292025 0.903981
vt 0.292025 0.236005
vt 0.485859 0.236005
vt 0.485859 0.903981
vt 0.495537 0.902177
vt 0.495537 0.228864
vt 0.687285 0.228864
vt 0.687285 0.902177
vt 0.219944 0.117621
vt 0.048010 0.117621
vt 0.048010 0.090616
vt 0.048010 0.205191
vt 0.048010 0.177005
vt 0.219944 0.177005
vt 0.219944 0.292744
vt 0.048010 0.292744
vt 0.048010 0.263061
vt 0.219944 0.364359
vt 0.048010 0.364359
vt 0.048010 0.350656
vt 0.219944 0.350656
vt 0.696021 0.902563
vt 0.696021 0.229225
vt 0.879054 0.229225
vt 0.879054 0.902563
vt 0.222809 0.177005
vt 0.222809 0.292744
vt 0.222809 0.350656
vt 0.222809 0.364359
vt 0.222809 0.018591
vt 0.222809 0.117621
vt 0.556541 0.364359
vt 0.496864 0.364359
vt 0.496864 0.349881
vt 0.556541 0.349881
vt 0.556541 0.090206
vt 0.496864 0.090206
vt 0.496864 0.032293
vt 0.556541 0.032293
vt 0.556541 0.177758
vt 0.496864 0.177758
vt 0.496864 0.119889
vt 0.556541 0.119889
vt 0.556541 0.265328
vt 0.496864 0.265328
vt 0.496864 0.205945
vt 0.556541 0.205945
vt 0.496864 0.292333
vt 0.556541 0.292333
vt 0.496864 0.018591
vt 0.556541 0.018591
vn -0.0000 -0.0000 1.0000
vn 1.0000 -0.0000 0.0000
vn 0.0000 0.0000 -1.0000
vn -1.0000 -0.0000 0.0000
vn -0.0000 -1.0000 -0.0000
vn -0.0000 1.0000 0.0000
usemtl None
s off
f 39/1/1 37/2/1 4/3/1 3/4/1
f 71/5/2 61/6/2 8/7/2 7/8/2
f 36/9/3 34/10/3 6/11/3 5/12/3
f 43/13/4 44/14/4 2/15/4 1/16/4
f 29/17/1 15/18/1 97/19/1 89/20/1
f 57/21/5 35/22/5 2/23/5 44/24/5
f 56/25/5 31/26/5 10/27/5 45/28/5
f 23/29/1 39/1/1 105/30/1 101/31/1
f 32/32/3 30/33/3 12/34/3 11/35/3
f 33/36/1 35/37/1 10/38/1 9/39/1
f 28/40/3 26/41/3 16/42/3 14/43/3
f 60/44/3 51/45/3 106/46/3 110/47/3
f 53/48/5 27/49/5 13/50/5 48/51/5
f 29/52/1 31/53/1 13/54/1 15/55/1
f 52/56/5 21/57/5 17/58/5 49/59/5
f 43/13/4 1/16/4 82/60/4 112/61/4
f 22/62/3 24/63/3 20/64/3 18/65/3
f 25/66/1 27/67/1 17/68/1 19/69/1
f 38/70/3 40/71/3 24/63/3 22/62/3
f 22/62/3 18/65/3 100/72/3 104/73/3
f 59/74/5 37/75/5 21/57/5 52/56/5
f 19/76/1 17/77/1 21/78/1 23/29/1
f 15/18/1 13/79/1 27/80/1 25/81/1
f 49/59/5 17/58/5 27/49/5 53/48/5
f 5/82/4 62/83/4 87/84/4 88/85/4
f 18/65/3 20/64/3 26/41/3 28/40/3
f 9/86/1 10/87/1 31/88/1 29/17/1
f 14/43/3 16/42/3 30/33/3 32/32/3
f 62/83/4 43/13/4 112/61/4 87/84/4
f 48/51/5 13/50/5 31/26/5 56/25/5
f 1/89/1 2/90/1 35/91/1 33/92/1
f 45/28/5 10/27/5 35/22/5 57/21/5
f 55/93/2 78/94/2 118/95/2 108/96/2
f 11/97/3 12/98/3 34/99/3 36/100/3
f 42/101/5 4/102/5 37/75/5 59/74/5
f 36/9/3 5/12/3 88/103/3 91/104/3
f 7/105/3 8/106/3 40/71/3 38/70/3
f 23/107/1 21/108/1 37/109/1 39/110/1
f 41/111/2 71/5/2 111/112/2 83/113/2
f 61/114/5 42/101/5 59/74/5 70/115/5
f 15/18/1 25/81/1 96/116/1 97/19/1
f 63/117/5 45/28/5 57/21/5 69/118/5
f 64/119/5 48/51/5 56/25/5 68/120/5
f 54/121/2 77/122/2 117/123/2 107/124/2
f 50/125/3 54/126/3 107/127/3 103/128/3
f 65/129/5 49/59/5 53/48/5 67/130/5
f 70/115/5 59/74/5 52/56/5 66/131/5
f 14/43/3 32/32/3 94/132/3 95/133/3
f 47/134/3 55/135/3 108/136/3 98/137/3
f 66/131/5 52/56/5 49/59/5 65/129/5
f 67/130/5 53/48/5 48/51/5 64/119/5
f 7/105/3 38/70/3 85/138/3 86/139/3
f 28/40/3 14/43/3 95/133/3 99/140/3
f 68/120/5 56/25/5 45/28/5 63/117/5
f 69/118/5 57/21/5 44/24/5 72/141/5
f 33/92/1 9/86/1 90/142/1 81/143/1
f 62/83/4 72/144/4 44/14/4 43/13/4
f 3/145/2 4/146/2 42/147/2 41/111/2
f 5/82/4 6/148/4 72/144/4 62/83/4
f 34/149/5 69/118/5 72/141/5 6/150/5
f 30/151/5 68/120/5 63/117/5 12/152/5
f 26/153/5 67/130/5 64/119/5 16/154/5
f 24/155/5 66/131/5 65/129/5 20/156/5
f 40/157/5 70/115/5 66/131/5 24/155/5
f 20/156/5 65/129/5 67/130/5 26/153/5
f 16/154/5 64/119/5 68/120/5 30/151/5
f 12/152/5 63/117/5 69/118/5 34/149/5
f 8/158/5 61/114/5 70/115/5 40/157/5
f 51/159/2 76/160/2 116/161/2 106/162/2
f 116/163/6 104/164/6 100/165/6 115/166/6
f 117/167/6 99/168/6 95/169/6 114/170/6
f 118/171/6 94/172/6 92/173/6 113/174/6
f 119/175/6 91/176/6 88/177/6 87/178/6
f 71/5/2 7/8/2 86/179/2 111/112/2
f 75/180/4 50/181/4 103/182/4 115/183/4
f 46/184/3 58/185/3 109/186/3 93/187/3
f 3/145/2 41/111/2 83/113/2 84/188/2
f 41/111/2 42/147/2 61/6/2 71/5/2
f 120/189/6 85/190/6 104/164/6 116/163/6
f 115/166/6 100/165/6 99/168/6 117/167/6
f 114/170/6 95/169/6 94/172/6 118/171/6
f 113/174/6 92/173/6 91/176/6 119/175/6
f 111/191/6 86/192/6 85/190/6 120/189/6
f 84/193/6 83/194/6 110/195/6 105/196/6
f 90/197/6 93/198/6 109/199/6 81/200/6
f 97/201/6 98/202/6 108/203/6 89/204/6
f 102/205/6 103/206/6 107/207/6 96/208/6
f 105/196/6 110/195/6 106/209/6 101/210/6
f 101/210/6 106/209/6 103/206/6 102/205/6
f 96/208/6 107/207/6 98/202/6 97/201/6
f 89/204/6 108/203/6 93/198/6 90/197/6
f 81/200/6 109/199/6 112/211/6 82/212/6
f 83/194/6 111/191/6 120/189/6 110/195/6
f 106/209/6 116/163/6 115/166/6 103/206/6
f 107/207/6 117/167/6 114/170/6 98/202/6
f 108/203/6 118/171/6 113/174/6 93/198/6
f 109/199/6 119/175/6 87/178/6 112/211/6
f 9/86/1 29/17/1 89/20/1 90/142/1
f 58/213/2 79/214/2 119/215/2 109/216/2
f 79/217/1 73/218/1 113/219/1 119/220/1
f 1/89/1 33/92/1 81/143/1 82/221/1
f 78/222/1 74/223/1 114/224/1 118/225/1
f 73/226/4 46/227/4 93/228/4 113/229/4
f 11/35/3 36/9/3 91/104/3 92/230/3
f 80/231/4 60/232/4 110/233/4 120/234/4
f 32/32/3 11/35/3 92/230/3 94/132/3
f 77/235/1 75/236/1 115/237/1 117/238/1
f 74/239/4 47/240/4 98/241/4 114/242/4
f 38/70/3 22/62/3 104/73/3 85/138/3
f 18/65/3 28/40/3 99/140/3 100/72/3
f 76/243/1 80/244/1 120/245/1 116/246/1
f 39/1/1 3/4/1 84/247/1 105/30/1
f 19/76/1 23/29/1 101/31/1 102/248/1
f 25/81/1 19/76/1 102/248/1 96/116/1
f 138/249/1 137/250/1 122/251/1 121/252/1
f 136/253/1 135/254/1 126/255/1 125/256/1
f 134/257/1 133/258/1 128/259/1 127/260/1
f 131/261/1 132/262/1 130/263/1 129/264/1
f 139/265/1 140/266/1 132/262/1 131/261/1
f 129/264/1 130/263/1 133/258/1 134/257/1
f 127/260/1 128/259/1 135/254/1 136/253/1
f 125/267/1 126/268/1 137/269/1 138/270/1
f 123/271/1 124/272/1 140/266/1 139/265/1
f 143/273/2 141/274/2 146/275/2 145/276/2
f 143/273/2 144/277/2 142/278/2 141/274/2
f 147/279/4 150/280/4 152/281/4 151/282/4
f 147/279/4 148/283/4 149/284/4 150/280/4
f 172/285/3 171/286/3 156/287/3 155/288/3
f 167/289/3 160/290/3 179/291/3 176/292/3
f 164/293/3 172/285/3 182/294/3 180/295/3
f 169/296/3 170/297/3 158/298/3 157/299/3
f 167/300/3 168/301/3 159/302/3 160/303/3
f 165/304/3 166/305/3 161/306/3 162/307/3
f 162/308/3 161/309/3 163/310/3 164/293/3
f 160/290/3 159/311/3 166/312/3 165/313/3
f 157/314/3 158/315/3 168/316/3 167/289/3
f 153/317/3 154/318/3 170/319/3 169/320/3
f 164/321/3 163/322/3 171/323/3 172/324/3
f 160/290/3 165/313/3 178/325/3 179/291/3
f 169/320/3 157/314/3 177/326/3 173/327/3
f 157/314/3 167/289/3 176/292/3 177/326/3
f 153/317/3 169/320/3 173/327/3 174/328/3
f 172/285/3 155/288/3 175/329/3 182/294/3
f 162/308/3 164/293/3 180/295/3 181/330/3
f 165/313/3 162/308/3 181/330/3 178/325/3
f 193/331/6 183/332/6 192/333/6 201/334/6
f 194/335/6 185/336/6 191/337/6 200/338/6
f 195/339/6 186/340/6 190/341/6 199/342/6
f 196/343/6 187/344/6 189/345/6 198/346/6
f 201/334/6 192/333/6 188/347/6 197/348/6
f 197/348/6 188/347/6 187/344/6 196/343/6
f 198/346/6 189/345/6 186/340/6 195/339/6
f 199/342/6 190/341/6 185/336/6 194/335/6
f 200/338/6 191/337/6 184/349/6 202/350/6
