# Blender v2.79 (sub 0) OBJ File: ''
# www.blender.org
mtllib tablet.mtl
o Cube_Cube.001
v -0.604945 1.140907 0.823375
v -0.604945 1.140907 1.000000
v -0.989144 0.784914 1.000000
v -0.989144 0.784914 0.823375
v 0.601908 1.140907 0.823375
v 0.601908 1.140907 1.000000
v -0.786456 1.140907 1.000000
v -0.989144 0.947940 1.000000
v -0.989144 0.947940 0.823375
v -0.786456 1.140907 0.823375
v -0.771059 0.784914 1.000000
v -0.604945 0.951027 1.000000
v -0.604945 0.951027 0.823375
v -0.771059 0.784914 0.823375
v 0.986106 0.784914 0.823375
v 0.986106 0.784914 1.000000
v 0.783418 1.140907 0.823375
v 0.986106 0.947940 0.823375
v 0.986106 0.947940 1.000000
v 0.783418 1.140907 1.000000
v 0.768021 0.784914 0.823375
v 0.601908 0.951027 0.823375
v 0.601908 0.951027 1.000000
v 0.768021 0.784914 1.000000
v -0.989737 0.226831 0.823375
v -0.989737 0.226831 1.000000
v -0.605538 -0.129163 0.823375
v -0.605538 -0.129163 1.000000
v -0.808226 0.226831 0.823375
v -0.605538 0.033863 0.823375
v -0.605538 0.033863 1.000000
v -0.808226 0.226831 1.000000
v -0.823624 -0.129163 0.823375
v -0.989737 0.036950 0.823375
v -0.989737 0.036950 1.000000
v -0.823624 -0.129163 1.000000
v 0.898791 1.031961 0.916207
v -0.904118 1.031961 0.916207
v 0.898791 -0.035852 0.916207
v -0.904118 -0.035852 0.916207
v 0.993091 0.194870 0.823375
v 0.993091 0.194870 1.000000
v 0.608892 -0.161124 1.000000
v 0.608892 -0.161124 0.823375
v 0.811581 0.194870 1.000000
v 0.608892 0.001902 1.000000
v 0.608892 0.001902 0.823375
v 0.811581 0.194870 0.823375
v 0.826978 -0.161124 1.000000
v 0.993091 0.004990 1.000000
v 0.993091 0.004990 0.823375
v 0.826978 -0.161124 0.823375
v -0.904118 1.031961 0.905539
v 0.898791 1.031961 0.905539
v -0.904118 -0.035852 0.905539
v 0.898791 -0.035852 0.905539
vt 0.928011 0.453225
vt 0.928011 0.381851
vt 0.998899 0.381851
vt 0.998899 0.453225
vt 0.479840 0.948987
vt 0.414411 0.948987
vt 0.414411 0.879534
vt 0.479840 0.879534
vt 0.944024 0.302150
vt 0.944024 0.373523
vt 0.873136 0.373523
vt 0.873136 0.302150
vt 0.285753 0.728460
vt 0.351183 0.728460
vt 0.428629 0.808161
vt 0.428629 0.879534
vt 0.352422 0.879534
vt 0.285753 0.814215
vt 0.142876 0.793779
vt 0.209545 0.728460
vt 0.285753 0.728460
vt 0.285753 0.799833
vt 0.208306 0.879535
vt 0.142876 0.879535
vt 0.928011 0.302150
vt 0.998899 0.302150
vt 0.212663 0.945772
vt 0.141776 0.945772
vt 0.141776 0.860016
vt 0.212663 0.860016
vt 0.070888 0.987801
vt 0.000000 0.987801
vt 0.000000 0.934681
vt 0.070888 0.934681
vt 0.043016 0.860016
vt 0.113904 0.860016
vt 0.113904 0.934681
vt 0.043016 0.934681
vt 0.414411 0.948987
vt 0.348981 0.948987
vt 0.348981 0.879534
vt 0.414411 0.879534
vt 0.571505 0.879534
vt 0.506076 0.879534
vt 0.428629 0.799833
vt 0.428629 0.728460
vt 0.504837 0.728460
vt 0.571505 0.793779
vt 0.869710 0.067119
vt 0.924633 0.013308
vt 0.987414 0.013308
vt 0.987414 0.072107
vt 0.923612 0.137767
vt 0.869710 0.137767
vt 0.944024 0.453225
vt 0.873136 0.453225
vt 0.873136 0.604299
vt 0.944024 0.604299
vt 0.944024 0.690055
vt 0.873136 0.690055
vt 0.999034 0.988909
vt 0.928146 0.988909
vt 0.928146 0.923590
vt 0.999034 0.923590
vt 0.928146 0.868444
vt 0.999034 0.868444
vt 0.999034 0.943108
vt 0.928146 0.943108
vt 0.998899 0.453225
vt 0.998899 0.524598
vt 0.928011 0.524598
vt 0.928011 0.453225
vt 0.545270 0.948987
vt 0.479840 0.948987
vt 0.479840 0.879534
vt 0.545270 0.879534
vt 0.197624 0.909550
vt 0.132194 0.909550
vt 0.054747 0.829848
vt 0.054747 0.758475
vt 0.130955 0.758475
vt 0.197624 0.823794
vt 0.714382 0.814215
vt 0.647713 0.879534
vt 0.571505 0.879534
vt 0.571505 0.808161
vt 0.648952 0.728460
vt 0.714382 0.728460
vt 0.998899 0.604299
vt 0.928011 0.604299
vt 0.141776 0.945772
vt 0.070888 0.945772
vt 0.070888 0.860016
vt 0.141776 0.860016
vt 0.999034 0.868444
vt 0.928146 0.868444
vt 0.928146 0.803124
vt 0.999034 0.803124
vt 0.928146 0.728460
vt 0.999034 0.728460
vt 0.029329 0.708941
vt 0.029329 0.000000
vt 0.457891 0.000000
vt 0.457891 0.708941
vt 0.873136 0.604299
vt 0.873136 0.532926
vt 0.944024 0.532926
vt 0.944024 0.604299
vt 0.348981 0.948987
vt 0.283551 0.948987
vt 0.283551 0.879534
vt 0.348981 0.879534
vt 0.863679 0.158006
vt 0.923105 0.158006
vt 0.993445 0.230394
vt 0.993445 0.295218
vt 0.924230 0.295218
vt 0.863679 0.235893
vt 0.857258 0.814215
vt 0.790589 0.879534
vt 0.714382 0.879534
vt 0.714382 0.808161
vt 0.791828 0.728460
vt 0.857258 0.728460
vt 0.873136 0.453225
vt 0.944024 0.453225
vt 0.928146 0.814215
vt 0.928146 0.728460
vt 0.928146 0.879534
vt 0.857258 0.879534
vt 0.212663 0.860016
vt 0.283551 0.860016
vt 0.283551 0.934681
vt 0.212663 0.934681
vt 0.407054 0.708941
vt 0.407054 0.000000
vt 0.835616 0.000000
vt 0.835616 0.708941
vn 0.0000 1.0000 0.0000
vn -1.0000 0.0000 0.0000
vn 0.0000 0.0000 -1.0000
vn 0.0000 0.0000 1.0000
vn -0.6895 0.7243 0.0000
vn 0.0000 -1.0000 0.0000
vn 0.7071 -0.7071 0.0000
vn 1.0000 0.0000 0.0000
vn 0.6895 0.7243 0.0000
vn -0.7071 -0.7071 0.0000
usemtl None
s off
f 1/1/1 10/2/1 7/3/1 2/4/1
f 3/5/2 8/6/2 9/7/2 4/8/2
f 6/9/1 20/10/1 17/11/1 5/12/1
f 4/13/3 9/14/3 10/15/3 1/16/3 13/17/3 14/18/3
f 11/19/4 12/20/4 2/21/4 7/22/4 8/23/4 3/24/4
f 7/3/5 10/2/5 9/25/5 8/26/5
f 14/27/6 11/28/6 3/29/6 4/30/6
f 11/31/7 14/32/7 13/33/7 12/34/7
f 1/35/8 2/36/8 12/37/8 13/38/8
f 15/39/8 18/40/8 19/41/8 16/42/8
f 16/43/4 19/44/4 20/45/4 6/46/4 23/47/4 24/48/4
f 21/49/3 22/50/3 5/51/3 17/52/3 18/53/3 15/54/3
f 17/11/9 20/10/9 19/55/9 18/56/9
f 24/57/6 21/58/6 15/59/6 16/60/6
f 21/61/10 24/62/10 23/63/10 22/64/10
f 6/65/2 5/66/2 22/67/2 23/68/2
f 26/69/1 32/70/1 29/71/1 25/72/1
f 27/73/8 30/74/8 31/75/8 28/76/8
f 28/77/4 31/78/4 32/79/4 26/80/4 35/81/4 36/82/4
f 33/83/3 34/84/3 25/85/3 29/86/3 30/87/3 27/88/3
f 29/71/9 32/70/9 31/89/9 30/90/9
f 36/91/6 33/92/6 27/93/6 28/94/6
f 33/95/10 36/96/10 35/97/10 34/98/10
f 26/99/2 25/100/2 34/98/2 35/97/2
f 40/101/4 39/102/4 37/103/4 38/104/4
f 41/105/1 48/106/1 45/107/1 42/108/1
f 43/109/2 46/110/2 47/111/2 44/112/2
f 44/113/3 47/114/3 48/115/3 41/116/3 51/117/3 52/118/3
f 49/119/4 50/120/4 42/121/4 45/122/4 46/123/4 43/124/4
f 45/107/5 48/106/5 47/125/5 46/126/5
f 52/127/6 49/119/6 43/124/6 44/128/6
f 49/119/7 52/127/7 51/129/7 50/130/7
f 41/131/8 42/132/8 50/133/8 51/134/8
f 56/135/3 55/136/3 53/137/3 54/138/3
